<svg
   version="1.1"
   id="svg10320"
   viewBox="0 0 270 270"
   height="270"
   width="270">
  <g
     transform="translate(0,-782.36216)"
     id="layer1">
    <path
       id="path4371"
       d="m 76.612012,988.82303 c -34.460616,-11.2553 -40.506369,-13.4742 -42.86596,-15.7342 -7.5733,-7.2533 -9.161435,-28.15032 -2.758031,-36.29132 2.0973,-2.6662 2.125213,-3.16701 0.176539,-3.16701 -0.840283,0 -2.249463,-0.52773 -3.131513,-1.17304 -1.528945,-1.1177 -1.477061,-1.24933 1.112577,-2.82416 1.493969,-0.90858 4.975365,-2.33592 7.736444,-3.1718 5.881486,-1.78095 6.491083,-3.08862 5.547403,-11.90066 -0.6727,-6.28166 -2.975503,-10.25852 -7.154966,-12.35689 -6.507249,-3.26723 -6.618813,-5.7282 -0.336374,-7.4188 2.24883,-0.60522 4.397752,-1.37229 4.77537,-1.70467 0.377623,-0.33208 -0.286904,-2.03884 -1.476707,-3.79227 -3.210064,-4.72987 -4.230387,-9.1857 -4.255218,-18.58127 -0.01915,-7.20819 0.271227,-9.04227 1.980382,-12.51366 3.861272,-7.8426 0.714919,-7.08424 68.632782,-16.54332 l 60.50017,-8.42605 36.62986,11.02045 c 20.14644,6.06126 37.00141,11.36975 37.4555,11.79688 1.25337,1.17819 -0.52233,3.41388 -4.25875,5.3618 -4.60179,2.39892 -6.88398,6.20196 -7.5709,12.61625 -0.94368,8.81194 -0.33408,10.12021 5.5474,11.90087 5.45011,1.64992 10.10198,4.1396 10.10198,5.40689 0,0.43798 -2.0597,1.25711 -4.57711,1.82044 -6.538,1.46324 -6.63271,1.58799 -4.4824,5.89155 1.60301,3.20799 1.87975,5.13374 1.87637,13.05395 -0.004,8.28939 -0.24624,9.80827 -2.25204,14.09477 -1.23645,2.64227 -3.04003,5.48258 -4.00794,6.31128 -2.33588,1.99995 -2.22825,2.49208 0.77398,3.53888 4.11859,1.43571 3.18761,3.77911 -2.695,6.78396 -1.47118,0.75122 -3.39643,2.35148 -4.27833,3.55533 -1.75853,2.40144 -3.1357,11.1659 -2.53001,16.10192 0.35147,2.8642 0.65659,3.1577 4.21003,4.0525 6.10698,1.5378 12.31098,5.1272 11.04692,6.3909 -0.28083,0.2812 -111.34187,27.33987 -117.242,28.56497 -1.37323,0.2842 -16.13901,-4.14287 -42.230446,-12.66447 z m 41.177698,-11.6951 0.21414,-12.6695 -38.916989,-12.63873 c -37.09978,-12.04815 -39.02256,-12.57917 -41.177696,-11.37202 -3.249803,1.82074 -4.616541,6.59429 -4.116904,14.37928 0.420217,6.54787 1.72062,10.21217 4.524435,12.74967 1.682039,1.5222 74.729254,22.5697 77.569624,22.3507 1.59797,-0.1257 1.70079,-0.815 1.90337,-12.7994 z m 52.36275,1.5515 46.66464,-11.5656 0,-7.74758 c 0,-4.26077 0.42402,-8.96341 0.94227,-10.44969 0.51824,-1.48687 0.7348,-2.91062 0.48124,-3.16431 -0.65062,-0.65069 -57.84073,11.20778 -66.13454,13.71303 -3.77044,1.13895 -7.39742,1.86295 -8.05998,1.60835 -0.95731,-0.3674 -20.97187,3.4168 -21.48058,4.0612 -0.0731,0.093 -0.31521,5.7746 -0.53806,12.6262 -0.28514,8.7677 -0.12888,12.4622 0.52759,12.4708 0.51303,0 21.93187,-5.1915 47.59742,-11.5524 z m -29.00352,-41.51544 c -0.55745,-11.97156 -0.69382,-12.72756 -2.36944,-13.13264 -10.22099,-2.46994 -93.661405,-19.15582 -94.016824,-18.80011 -0.260248,0.26028 0.05304,1.72023 0.696269,3.2448 0.728872,1.728 1.14327,5.6525 1.099974,10.41648 l -0.0695,7.64438 47.367577,11.86206 c 26.052164,6.52429 47.483644,11.77322 47.625494,11.66462 0.14187,-0.1077 -0.008,-5.91338 -0.33358,-12.89959 z m 43.08092,2.35207 c 20.01339,-5.58908 37.56349,-10.68543 39.0002,-11.32536 3.88847,-1.73159 5.67301,-6.21255 6.07444,-15.25315 0.30698,-6.91351 0.15605,-7.86905 -1.66802,-10.55769 -1.26416,-1.86353 -2.77602,-3.0243 -4.08978,-3.14038 -1.14634,-0.10172 -19.18758,5.42215 -40.09165,12.27522 l -38.0074,12.45981 -0.27763,5.03921 c -0.41521,7.53578 0.70597,20.66423 1.76473,20.66423 0.49893,0 17.28174,-4.5728 37.29512,-10.16189 z m -59.66213,-48.51062 -0.2353,-7.57377 -38.429706,-12.53652 c -29.894341,-9.75173 -38.898695,-12.38214 -40.54124,-11.84313 -3.672496,1.20544 -5.212641,5.57415 -4.853303,13.76634 0.358615,8.17567 2.237608,13.12453 5.561928,14.6488 1.171694,0.53701 19.070005,5.73029 39.774026,11.53986 l 37.643685,10.56338 0.65761,-5.49545 c 0.3617,-3.0228 0.55174,-8.90388 0.42231,-13.06951 z m 75.87944,0.79758 22.90439,-5.57771 -0.0806,-7.75896 c -0.0499,-4.80511 0.35731,-8.81476 1.06951,-10.53157 0.63256,-1.52448 0.94001,-2.98206 0.68321,-3.23896 -0.40323,-0.40307 -95.17385,18.72837 -95.65123,19.30905 -0.0973,0.11967 -0.44243,5.97352 -0.76681,13.01058 l -0.58977,12.79518 24.76346,-6.21465 c 13.61992,-3.41831 35.07045,-8.72527 47.66786,-11.79296 z"
    />
  </g>
</svg>
