<?xml version="1.0" encoding="UTF-8" standalone="no"?>
<!-- Created with Inkscape (http://www.inkscape.org/) -->

<svg
   xmlns:dc="http://purl.org/dc/elements/1.1/"
   xmlns:cc="http://creativecommons.org/ns#"
   xmlns:rdf="http://www.w3.org/1999/02/22-rdf-syntax-ns#"
   xmlns:svg="http://www.w3.org/2000/svg"
   xmlns="http://www.w3.org/2000/svg"
   xmlns:sodipodi="http://sodipodi.sourceforge.net/DTD/sodipodi-0.dtd"
   xmlns:inkscape="http://www.inkscape.org/namespaces/inkscape"
   width="270"
   height="270"
   viewBox="0 0 270 270"
   id="svg10320"
   version="1.1"
   inkscape:version="0.91 r13725"
   sodipodi:docname="experience.svg">
  <defs
     id="defs10322" />
  <sodipodi:namedview
     id="base"
     pagecolor="#ffffff"
     bordercolor="#666666"
     borderopacity="1.0"
     inkscape:pageopacity="0.0"
     inkscape:pageshadow="2"
     inkscape:zoom="0.49497475"
     inkscape:cx="377.24796"
     inkscape:cy="66.453285"
     inkscape:document-units="px"
     inkscape:current-layer="layer1"
     showgrid="false"
     units="px"
     inkscape:window-width="1366"
     inkscape:window-height="719"
     inkscape:window-x="0"
     inkscape:window-y="0"
     inkscape:window-maximized="1" />
  <metadata
     id="metadata10325">
    <rdf:RDF>
      <cc:Work
         rdf:about="">
        <dc:format>image/svg+xml</dc:format>
        <dc:type
           rdf:resource="http://purl.org/dc/dcmitype/StillImage" />
        <dc:title></dc:title>
      </cc:Work>
    </rdf:RDF>
  </metadata>
  <g
     inkscape:label="Layer 1"
     inkscape:groupmode="layer"
     id="layer1"
     transform="translate(0,-782.36216)">
    <path
       style="fill:#ffffff"
       d="m 70.80967,1023.3763 c -4.627036,-1.7696 -8.703748,-3.4081 -9.059392,-3.6411 -0.877536,-0.5749 -1.615967,-2.105 -1.615967,-3.3486 0,-0.5636 0.683545,-3.1782 1.519227,-5.811 1.653227,-5.2088 1.723425,-5.9513 0.744255,-7.8708 -0.594281,-1.1646 -7.365421,-7.67006 -8.801479,-8.45606 -1.867154,-1.0215 -3.273908,-0.8224 -8.582448,1.2148 -4.161022,1.5967 -4.764791,1.7645 -5.98446,1.6633 -1.029702,-0.084 -1.578766,-0.2912 -2.278885,-0.859 -1.797406,-1.4547 -5.749486,-9.3356 -7.668794,-15.2922 -0.84646,-2.6272 -0.897322,-2.94726 -0.634665,-3.99243 0.49571,-1.97233 1.105995,-2.48725 5.902551,-4.98172 7.020739,-3.65132 6.943215,-3.51861 6.770752,-11.58087 -0.118598,-5.5528 -0.121,-5.57231 -0.832438,-6.87899 -0.392335,-0.7209 -1.028981,-1.53547 -1.41477,-1.8102 -0.385819,-0.27323 -2.738535,-1.41747 -5.228256,-2.5392 -5.179824,-2.33413 -5.932306,-2.95835 -6.13047,-5.08651 -0.09908,-1.06438 0.246504,-2.13536 3.162726,-9.7959 1.849709,-4.85922 3.514736,-8.85883 3.827357,-9.1936 1.641547,-1.75796 2.883374,-1.74595 8.537861,0.0811 5.163551,1.66908 6.433301,1.79909 8.223712,0.8428 1.182918,-0.63202 7.832728,-7.48639 8.566385,-8.83 0.26662,-0.48821 0.410439,-1.35622 0.413622,-2.49507 0.006,-1.5802 -0.160033,-2.16299 -1.724056,-6.11335 -1.985122,-5.01325 -2.120024,-5.98455 -1.078312,-7.76112 0.489615,-0.83499 1.12485,-1.38325 2.663233,-2.2978 3.270214,-1.94441 8.383773,-4.28785 12.090339,-5.54048 5.766629,-1.94922 6.407119,-1.61984 9.839798,5.06038 2.472906,4.81238 3.378785,5.95573 5.193305,6.55442 0.722098,0.2372 2.323442,0.27923 6.420541,0.16514 7.591928,-0.21318 7.972648,-0.42455 10.381628,-5.7966 2.88911,-6.44242 2.94655,-6.54361 4.10217,-7.22067 0.68841,-0.40353 1.45119,-0.62932 2.12612,-0.62932 1.29014,0 17.78764,6.20884 18.64989,7.01891 0.78879,0.74101 1.33791,2.00475 1.33791,3.07874 0,0.50292 -0.68412,3.06854 -1.52028,5.70112 -1.65584,5.21321 -1.74774,6.16019 -0.78097,8.04455 0.25881,0.50442 2.24832,2.58544 4.42133,4.62443 4.2922,4.02753 5.34202,4.64904 7.45184,4.41064 0.56792,-0.063 3.1303,-0.91966 5.69418,-1.90087 2.56385,-0.98121 4.95349,-1.78377 5.31025,-1.78377 0.86054,0 2.35485,0.63983 3.0873,1.32169 1.57285,1.46461 5.04132,8.33039 6.89553,13.64929 1.59228,4.56768 1.55025,6.06321 -0.21678,7.71398 -0.35486,0.33147 -2.63924,1.63155 -5.07644,2.88899 -4.86556,2.51067 -5.79756,3.32135 -6.22839,5.41858 -0.121,0.58879 -0.15132,3.42824 -0.0675,6.31002 0.21738,7.47888 0.27082,7.55845 7.13054,10.63419 2.45594,1.10131 4.78794,2.30291 5.18225,2.67041 0.85298,0.79536 1.40399,1.98645 1.40399,3.03491 0,0.82539 -5.97788,16.84088 -6.77045,18.13858 -0.55744,0.913 -2.25957,1.8267 -3.40238,1.8267 -0.43071,0 -2.90848,-0.6738 -5.5061,-1.497 -7.23326,-2.2927 -7.26763,-2.284 -12.45818,3.1499 -2.02199,2.1167 -3.89536,4.2611 -4.16303,4.76516 -0.26782,0.5041 -0.53156,1.54 -0.58648,2.302 -0.0892,1.2385 0.0907,1.8877 1.69695,6.1263 1.60786,4.2425 1.78621,4.8868 1.6967,6.1295 -0.13901,1.9309 -0.79121,2.7224 -3.61196,4.3825 -5.00715,2.9469 -13.32682,6.3304 -15.56547,6.3304 -2.43555,0 -3.20059,-0.8008 -6.15833,-6.4451 -3.47823,-6.6379 -3.43848,-6.6163 -11.64048,-6.3296 -5.351686,0.1862 -5.580896,0.2162 -6.652722,0.844 -0.610525,0.3579 -1.312986,0.875 -1.560991,1.1488 -0.248005,0.2732 -1.401019,2.6094 -2.562319,5.1895 -1.161241,2.58 -2.305607,4.9096 -2.542984,5.1769 -0.59353,0.6683 -2.272129,1.4045 -3.176267,1.3931 -0.4117,0 -4.53429,-1.4574 -9.161267,-3.2268 z m 28.595141,-47.39742 c 5.250349,-1.34271 9.466229,-4.79016 11.747489,-9.60614 1.16847,-2.46714 1.63017,-4.59981 1.63017,-7.53143 0,-4.9511 -1.67239,-9.02036 -5.11152,-12.43749 -3.09019,-3.07034 -6.07,-4.55356 -10.37013,-5.16157 -3.535934,-0.50021 -7.888034,0.40984 -11.175452,2.33684 -1.817494,1.06528 -5.169106,4.41695 -6.234417,6.23435 -3.741064,6.38268 -3.07178,14.44705 1.687156,20.32832 4.112531,5.0826 11.420545,7.47558 17.826704,5.83712 z m 76.227429,-46.90989 c -1.93528,-0.24321 -2.99227,-0.73231 -3.65393,-1.6871 -0.73335,-1.05808 -0.7689,-1.25354 -1.06675,-5.86085 -0.29815,-4.61301 -0.60491,-5.78638 -1.79951,-6.88379 -0.34549,-0.31766 -2.52217,-1.36883 -4.83709,-2.33653 -4.57611,-1.91228 -6.16293,-2.19872 -7.70224,-1.38955 -0.4117,0.21618 -2.11828,1.63215 -3.79244,3.1463 -1.67412,1.51385 -3.38088,2.92682 -3.79273,3.14 -0.87306,0.45157 -1.9499,0.49601 -2.94066,0.1231 -0.80587,-0.30445 -11.66162,-10.99299 -12.19891,-12.01114 -0.49929,-0.94608 -0.44473,-2.67341 0.11259,-3.56815 0.25641,-0.41164 1.61176,-2.03958 3.01164,-3.61799 1.39988,-1.5781 2.72319,-3.20605 2.94078,-3.61799 0.82028,-1.55198 0.54381,-3.14 -1.30335,-7.48549 -0.93341,-2.19572 -1.95831,-4.3455 -2.27762,-4.77755 -1.07759,-1.45771 -2.20004,-1.77147 -7.23136,-2.02037 -7.50633,-0.37171 -7.70278,-0.66926 -7.6975,-11.66627 0.002,-4.24176 0.10239,-6.57367 0.3137,-7.28703 0.33673,-1.13695 1.28456,-2.41187 2.12903,-2.8638 0.29155,-0.15613 2.63775,-0.42377 5.21385,-0.595 4.26544,-0.28344 4.78091,-0.3682 5.77035,-0.94807 0.59761,-0.35023 1.26762,-0.91308 1.4889,-1.25083 0.52072,-0.7947 3.55779,-8.27634 3.7713,-9.29025 0.37423,-1.77762 -0.22489,-2.88746 -3.6234,-6.71211 -4.91161,-5.52749 -4.98094,-5.13981 2.23106,-12.47277 5.90858,-6.00773 6.92477,-6.86173 8.1648,-6.86173 1.35616,0 1.89153,0.3379 5.36036,3.38344 1.83086,1.60744 3.69522,3.07572 4.14304,3.26283 1.56345,0.65325 2.65591,0.43509 7.15987,-1.43002 6.34692,-2.62826 6.50749,-2.85302 6.85878,-9.602 0.12911,-2.47858 0.35223,-4.51391 0.53367,-4.86559 0.54774,-1.0618 1.57306,-1.97788 2.48467,-2.21997 1.72157,-0.45719 7.61133,-0.80878 10.68098,-0.63758 7.82621,0.43647 8.36461,0.88678 8.66024,7.24331 0.32856,7.0646 0.53186,7.35278 6.99768,9.91831 4.46619,1.7721 5.64073,1.99257 7.17869,1.34743 0.44161,-0.18526 2.26201,-1.65812 4.04531,-3.2731 1.78329,-1.61498 3.50291,-3.03536 3.82138,-3.15645 1.20111,-0.45665 2.66783,-0.25701 3.69044,0.50271 1.64734,1.2236 11.28817,11.08615 11.56566,11.83164 0.39152,1.05186 0.31505,2.20085 -0.20297,3.0504 -0.25431,0.41726 -1.61471,2.04536 -3.02284,3.61803 -2.92577,3.2676 -3.6104,4.50156 -3.44151,6.20274 0.1123,1.1319 2.77367,7.86476 3.73398,9.44659 0.27143,0.44722 0.99343,1.10605 1.60432,1.46404 1.02165,0.59876 1.44488,0.66829 5.28052,0.86766 5.00989,0.26031 5.37205,0.31802 6.34317,1.00955 1.24969,0.88985 1.63783,2.16909 1.97924,6.52332 0.2429,3.09784 0.2432,4.73594 0.002,7.81732 -0.31331,3.99553 -0.53291,4.79689 -1.57294,5.73937 -1.05009,0.95149 -1.60453,1.07909 -5.86244,1.34872 -4.81289,0.30445 -5.53454,0.47889 -6.83041,1.64956 -0.77236,0.69778 -1.2536,1.61894 -2.71205,5.19129 -2.56646,6.2863 -2.53686,6.47456 1.77161,11.26382 1.54989,1.72282 2.97081,3.42193 3.15763,3.77592 0.21317,0.40414 0.29934,1.13194 0.23119,1.95312 l -0.10869,1.30938 -5.5957,5.78218 c -3.07764,3.18023 -5.917,5.95183 -6.30969,6.1593 -0.8643,0.45638 -2.64309,0.4915 -3.44301,0.069 -0.32111,-0.17114 -1.93123,-1.51024 -3.57803,-2.97816 -1.64683,-1.46791 -3.38458,-2.87007 -3.8617,-3.11568 -1.63218,-0.84069 -2.95087,-0.6068 -7.60805,1.34992 -6.2331,2.61847 -6.29915,2.71094 -6.66789,9.33862 -0.41563,7.47078 -0.60206,7.6098 -10.4321,7.77193 -3.08778,0.051 -6.35685,0 -7.26459,-0.11409 z m 10.59078,-43.32013 c 4.89802,-1.26615 9.04006,-4.64334 11.29526,-9.20982 5.61656,-11.37224 -2.12297,-24.61127 -14.76916,-25.26371 -13.58527,-0.7009 -22.71838,13.59035 -16.40566,25.67115 3.70978,7.09937 12.09875,10.81404 19.87956,8.80238 z"
       id="path10354"
       inkscape:connector-curvature="0" />
  </g>
</svg>
