<svg
   version="1.1"
   id="svg10320"
   viewBox="0 0 270 270"
   height="270"
   width="270">
  <g
     transform="translate(0,-782.36216)"
     id="layer1">
    <path
       id="path3347"
       d="m 81.656954,1007.8788 c -19.710455,-4.4579 -36.392805,-17.15222 -44.913845,-34.17694 -5.27721,-10.54364 -6.73595,-16.87127 -6.685,-28.99765 0.0384,-9.13857 0.31627,-10.88535 2.76505,-17.38093 3.45382,-9.16158 8.76152,-17.3412 17.21122,-26.52396 7.87086,-8.55369 10.4533,-12.71627 13.47667,-21.72272 2.10641,-6.27491 2.24392,-7.7713 2.24392,-24.4185 0,-17.14499 -0.0587,-17.73395 -1.76688,-17.73395 -5.01302,0 -7.265,-8.44793 -3.25598,-12.21421 2.02119,-1.8988 2.4104,-1.92088 33.858571,-1.92088 l 31.81387,0 1.78924,1.98774 c 2.6709,2.96723 3.0536,4.85503 1.66024,8.18979 -0.81587,1.95265 -2.05505,3.21123 -3.52498,3.58016 l -2.26683,0.56894 0,17.92175 c 0,15.31617 0.25221,18.73804 1.7348,23.53633 2.32373,7.52061 6.81936,14.76745 13.65875,22.01756 8.75362,9.2793 17.26037,22.89127 17.28521,27.65872 0.009,1.78678 -4.45326,12.28676 -4.99271,11.74731 -0.17949,-0.1795 -0.91327,-2.57975 -1.63063,-5.33388 -2.5562,-9.8139 -7.75373,-18.23539 -18.18909,-29.47157 -4.75667,-5.1217 -7.88696,-9.51917 -10.39807,-14.60733 -5.40373,-10.9493 -6.27447,-15.96265 -6.28964,-36.21243 l -0.0131,-17.448 -20.319188,0 -20.319194,0 -0.01534,16.56455 c -0.01842,19.91088 -1.073581,25.86258 -6.538931,36.88375 -2.92538,5.89916 -5.90522,10.0956 -11.54716,16.26152 -8.51494,9.30576 -13.53743,17.18288 -16.38773,25.70205 -2.64148,7.89498 -2.13445,21.46903 1.12995,30.25042 6.17911,16.62224 18.05805,28.52407 34.912705,34.98001 5.35539,2.05132 7.202589,2.28487 18.323982,2.31712 13.816146,0.0401 19.065246,-1.23435 28.851756,-7.00452 l 4.9988,-2.94732 -1.24417,2.97769 c -0.68429,1.63777 -1.24416,4.30877 -1.24416,5.93558 0,2.75 -0.33937,3.0985 -4.82906,4.9594 -8.18342,3.3918 -13.77927,4.557 -23.88284,4.9731 -6.681287,0.2751 -11.512218,-0 -15.460251,-0.8987 z m 56.784926,-0.4145 c -3.07495,-1.8873 -4.27061,-4.8627 -3.50081,-8.71171 0.26696,-1.33483 7.08397,-16.27625 15.1489,-33.20322 8.06494,-16.92693 15.44185,-33.58498 16.39314,-37.01782 2.44779,-8.83315 3.67039,-22.75107 3.35105,-38.14801 -0.25789,-12.43372 -0.38229,-13.26007 -2.04151,-13.5607 -5.52776,-1.00158 -7.61387,-8.07045 -3.57392,-12.1104 l 2.16844,-2.16845 26.81859,0 c 25.71947,0 26.89739,0.0734 28.74136,1.79134 2.70273,2.51798 3.22345,5.48191 1.53629,8.74452 -0.95833,1.85321 -2.30294,2.94875 -4.04738,3.29764 l -2.61229,0.52245 0,18.36416 c 0,18.71536 0.9226,26.949 4.10238,36.61123 0.80294,2.4399 7.9606,18.09216 15.90591,34.78276 15.93913,33.48321 16.63192,35.75831 12.16665,39.95401 l -2.27933,2.1417 -52.715,0.2291 c -51.18612,0.2224 -52.79758,0.1784 -55.56247,-1.5186 z m 104.58416,-7.76576 c -3.48095,-5.69106 -29.51068,-62.53981 -31.01794,-67.74298 -2.93498,-10.13179 -4.01344,-20.65115 -4.0163,-39.175 l -0.003,-16.1442 -14.79767,0.24222 -14.79767,0.24222 -0.54446,22.08608 c -0.74695,30.30005 -0.36717,28.9744 -20.27416,70.76922 -7.74256,16.25556 -14.07738,29.74215 -14.07738,29.97026 0,0.22814 22.485,0.41474 49.96667,0.41474 27.48167,0 49.7843,-0.2982 49.5614,-0.66256 z m -85.38625,-8.83442 c 0.0174,-1.70833 13.21358,-24.48815 14.07049,-24.28911 0.53618,0.12456 5.04221,0.67194 10.01338,1.21642 8.40503,0.92057 18.60783,0.69304 29.46078,-0.65704 l 4.5203,-0.56232 4.41353,7.83924 c 2.42745,4.31158 5.46877,9.92636 6.75849,12.47731 l 2.34495,4.63807 -35.79432,0 c -19.68689,0 -35.7913,-0.29817 -35.7876,-0.66257 z m 31.90046,-34.34887 c -2.72491,-1.90862 -4.69795,-6.78221 -3.9799,-9.83072 0.82917,-3.5203 4.61091,-7.17292 8.10518,-7.82845 9.64892,-1.81018 15.5414,10.52745 8.04186,16.83791 -3.18863,2.68304 -8.95349,3.07215 -12.16714,0.82126 z m -2.75357,-31.24681 c -3.76906,-3.76906 -1.2415,-9.71786 4.12899,-9.71786 3.34091,0 5.58888,2.40636 5.58888,5.98273 0,4.92783 -6.15822,7.29481 -9.71787,3.73513 z m -104.569558,64.8567 c -12.027813,-2.91132 -24.290063,-12.61288 -29.594583,-23.41447 -2.97279,-6.05349 -5.37948,-15.7134 -5.40453,-21.69255 -0.0184,-4.38186 2.90723,-14.11215 5.06594,-16.84883 l 1.54454,-1.95812 11.04304,2.35445 c 9.914615,2.11389 12.938801,2.35842 29.59535,2.3928 17.941551,0.037 27.212251,-0.99687 39.881821,-4.44765 1.62944,-0.44378 2.30155,0.31254 4.81554,5.41919 2.60113,5.28366 2.91653,6.72231 2.87393,13.10926 -0.14479,21.70731 -14.53077,40.33908 -34.84359,45.12713 -6.98062,1.64545 -18.084799,1.62712 -24.977458,-0.041 z m 0.473423,-67.212 c -1.13215,-0.24002 -3.588176,-1.96614 -5.457838,-3.83582 -5.904768,-5.90476 -5.723388,-14.32989 0.437045,-20.30082 2.506412,-2.42931 3.892608,-3.02344 7.812456,-3.3485 9.067559,-0.75196 14.799942,4.07876 15.423242,12.99725 0.37731,5.39882 -1.468886,9.22077 -6.116791,12.66276 -2.345662,1.7371 -8.286507,2.63332 -12.098114,1.82513 z m 10.227863,-40.03598 c -2.925645,-2.30131 -3.684737,-5.56207 -2.036722,-8.74898 3.421879,-6.61718 12.861344,-3.93975 12.861344,3.64802 0,5.78625 -6.224457,8.71945 -10.824622,5.10096 z"
    />
  </g>
</svg>
