<svg
   version="1.1"
   id="svg10320"
   viewBox="0 0 270 270"
   height="270"
   width="270">
  <g
     transform="translate(0,-782.36216)"
     id="layer1">
    <path
       id="path3746"
       d="m 187.02056,1011.0293 c -12.20803,-3.8708 -20.13351,-12.24333 -23.30353,-24.61673 -0.98246,-3.8354 -1.25689,-7.159 -0.88489,-10.7183 l 0.53921,-5.1589 -13.55051,-13.57033 c -7.45278,-7.46369 -13.94489,-13.57034 -14.4269,-13.57034 -0.48197,0 -11.71366,10.84248 -24.95925,24.09437 -13.24562,13.2519 -24.56953,24.0944 -25.16431,24.0944 -0.5948,0 -1.08143,-0.9205 -1.08143,-2.046 0,-2.9015 -1.5449,-3.8442 -7.37103,-4.4993 -2.80855,-0.3154 -5.54654,-0.9187 -6.08444,-1.3408 -0.53789,-0.4222 -1.25584,-3.3704 -1.5954,-6.5516 -0.64058,-6.0023 -1.29823,-7.0398 -4.47506,-7.0619 -1.03696,0 -2.152,-0.4444 -2.47789,-0.9721 -0.34846,-0.5637 9.6389,-11.19447 24.25141,-25.81332 l 24.84388,-24.85536 -15.03042,-15.0488 -15.03039,-15.0485 -5.72949,0.5325 c -17.43537,1.62058 -34.23479,-12.34523 -35.81516,-29.77399 -0.59226,-6.53133 0.37517,-12.9051 2.05674,-13.55028 0.87665,-0.33647 4.19883,2.37835 10.06553,8.22492 4.8163,4.80002 9.35445,8.72721 10.08474,8.72721 1.32382,0 18.86493,-17.20624 18.86493,-18.50486 0,-0.37596 -4.14189,-4.88685 -9.20423,-10.02397 -11.07818,-11.24206 -11.04139,-11.48762 1.71968,-11.47944 7.28567,0 9.49407,0.33617 13.00935,1.95253 9.04784,4.16063 15.30608,11.19463 18.60998,20.91685 1.54865,4.55709 1.79343,6.7356 1.40105,12.46815 l -0.47551,6.94636 14.37017,14.35142 c 7.90359,7.89335 14.74408,14.3517 15.20108,14.3517 0.457,0 11.31156,-10.4551 24.12126,-23.23394 12.80969,-12.77884 23.66674,-23.234 24.12677,-23.234 0.46003,0 6.05466,5.22896 12.43251,11.61985 l 11.5961,11.62009 -23.44013,23.45197 c -12.89209,12.89812 -23.44013,24.03473 -23.44013,24.74712 0,0.713 5.80415,7.0907 12.89808,14.1724 l 12.89812,12.87683 8.87433,0.03 c 8.51066,0.03 9.14354,0.15291 15.44271,3.26636 11.81399,5.8386 17.9407,15.14264 18.54582,28.1628 0.32613,7.0172 -0.62404,12.0472 -2.27565,12.0472 -0.4287,0 -4.90101,-4.1467 -9.93849,-9.2147 l -9.15905,-9.2147 -9.44442,9.415 c -5.19445,5.1786 -9.44443,9.8161 -9.44443,10.3066 0,0.4903 3.87231,4.7491 8.60514,9.4642 4.73283,4.71513 8.60517,9.07383 8.60517,9.68633 0,2.7555 -12.45437,3.7749 -19.36162,1.5846 z m -144.99934,-0.2998 c -0.002,-0.355 2.18664,-7.7119 4.8622,-16.34953 l 4.86473,-15.7045 3.71265,0 c 4.39783,0 5.49425,1.4158 5.49425,7.0931 0,5.4359 1.29859,6.7117 7.58769,7.4532 2.94368,0.3472 5.75858,1.0374 6.25534,1.5342 0.49673,0.4965 0.77992,2.3996 0.62931,4.2288 l -0.27374,3.32613 -15.05906,4.5079 c -14.95117,4.4762 -18.06851,5.1505 -18.07328,3.9107 z M 204.77368,849.28076 c -10.14066,-10.16162 -11.37315,-11.70487 -10.56055,-13.22325 1.6912,-3.16 10.37375,-10.38316 14.26957,-11.87098 6.89575,-2.63338 14.19222,-0.3064 19.06336,6.08005 3.13071,4.10463 3.92784,12.27933 1.64115,16.83064 -1.34624,2.67949 -11.37189,13.68772 -12.46597,13.68772 -0.25695,0 -5.63328,-5.17691 -11.94756,-11.50418 z"
    />
  </g>
</svg>
